PathFileType	4	(X/Y/Z)	F:\MotionCapture\20160217\3\Generated_files\EMG_Fprce_test01-Dynamic.trc
DataRate	CameraRate	NumFrames	NumMarkers	Units	OrigDataRate	OrigDataStartFrame	OrigNumFrames
120.00	120.00	       7	39	mm	120.00	72	       569
Frame#	Time	Top.Head			Front.Head			Rear.Head			R.Shoulder			R.Offset			R.Elbow			R.Wrist			L.Shoulder			L.Elbow			L.Wrist			R.ASIS			L.ASIS			V.Sacral			R.Thigh			R.Knee			R.Shank			R.Ankle			R.Heel			R.Toe			L.Thigh			L.Knee			L.Shank			L.Ankle			L.Heel			L.Toe			R1			R2			R3			R4			R5			R6			R7			L1			L2			L3			L4			L5			L6			L7			V_Mid_ASIS			V_Pelvis_Origin			V_R.Hip_JC			V_L.Hip_JC			V_R.Knee_JC			V_L.Knee_JC			V_R.Ankle_JC			V_L.Ankle_JC			V_Mid_Hip			V_Mid_Shoulder			V_R.Hand			V_L.Hand			V_R.Toe_Offset_Static			V_L.Toe_Offset_Static			V_R.Toe_Offset			V_L.Toe_Offset			
		X1	Y1	Z1	X2	Y2	Z2	X3	Y3	Z3	X4	Y4	Z4	X5	Y5	Z5	X6	Y6	Z6	X7	Y7	Z7	X8	Y8	Z8	X9	Y9	Z9	X10	Y10	Z10	X11	Y11	Z11	X12	Y12	Z12	X13	Y13	Z13	X14	Y14	Z14	X15	Y15	Z15	X16	Y16	Z16	X17	Y17	Z17	X18	Y18	Z18	X19	Y19	Z19	X20	Y20	Z20	X21	Y21	Z21	X22	Y22	Z22	X23	Y23	Z23	X24	Y24	Z24	X25	Y25	Z25	X26	Y26	Z26	X27	Y27	Z27	X28	Y28	Z28	X29	Y29	Z29	X30	Y30	Z30	X31	Y31	Z31	X32	Y32	Z32	X33	Y33	Z33	X34	Y34	Z34	X35	Y35	Z35	X36	Y36	Z36	X37	Y37	Z37	X38	Y38	Z38	X39	Y39	Z39	

72	0.592	2265.69067	16.53410	1724.64331	2143.12988	12.87990	1656.65808	2364.26172	9.98228	1642.56665	2290.18555	203.85046	1410.37744	2428.76782	-67.75138	1281.83020	2343.02100	302.26166	1090.02039	2229.57861	294.98694	854.12567	2260.12354	-207.11195	1422.89868	2296.36914	-306.40546	1100.45667	2223.45557	-294.95648	852.61774				2237.53027	-144.92316	935.70709	2468.30176	-12.30321	948.79901	2224.40869	184.65753	470.64761	2163.87402	130.56071	584.42261							2500.06787	127.75442	107.53736	2306.84741	200.17911	50.65053	2217.57056	-84.45825	614.31006	2312.51172	-136.06921	456.86798	2329.56177	-54.11374	319.32532	2442.14771	-115.20069	67.07121	2507.31934	-55.82571	48.78101	2303.94873	-111.23624	49.85519	2260.32178	190.10738	42.45201	2296.28369	164.70181	55.28451	2378.92578	117.27600	86.87225	2452.01563	105.83804	91.32722	2477.37915	175.28865	103.66650	2408.91455	214.54568	72.60163	2348.40283	231.03691	52.82261	2255.82349	-87.09025	40.46711	2291.13354	-73.40397	51.54562	2384.21680	-25.22703	54.18168	2468.55273	-24.17274	48.76152	2482.13257	-97.48608	48.94952	2404.13965	-122.51507	34.60750	2344.28003	-138.22461	45.07236																																																	2433.02979	197.99178	121.24955	2311.43896	126.77441	246.85374	2253.42505	143.63254	940.05182	2966.63647	127.59286	-109.95612	2989.27539	59.36068	-150.01184	2979.58350	101.60246	-148.96669	
73	0.600	2262.01514	16.46343	1724.48584	2139.86792	12.28621	1656.40271	2360.66895	9.35145	1642.29895	2286.86597	202.85291	1410.00720	2425.53564	-69.05148	1281.84338	2342.37939	301.18292	1090.37341	2231.97095	297.19205	853.38239	2256.16357	-208.02464	1422.85852	2291.52905	-308.18054	1100.52954	2216.74561	-295.95911	853.02209				2234.38623	-145.54913	935.01111	2465.80615	-13.08084	948.92603	2214.72412	184.30226	472.23285	2155.25977	129.61108	587.38745							2495.43896	124.60560	113.98586	2303.92432	198.22388	52.64894	2217.41309	-84.77663	613.33514	2311.98145	-136.52722	456.58527	2330.13599	-54.10833	318.83618	2442.30103	-115.39056	66.99785	2507.60693	-55.97315	48.71682	2304.05396	-111.28562	49.78697	2257.74780	189.12997	42.52441	2292.51978	162.98552	56.77896	2374.71240	114.73904	91.10806	2447.87695	102.53522	97.06354	2473.25830	172.53362	109.44041	2405.55078	212.15419	76.96427	2345.27197	228.97417	55.57291	2255.75098	-87.06666	40.70276	2291.23657	-72.86794	51.75096	2384.60913	-25.50612	54.30120	2468.61621	-24.24671	48.80457	2482.27246	-97.62992	48.85266	2404.32910	-122.73148	34.42758	2344.58057	-138.49068	44.86991																																																	2305.47632	124.86826	249.27699	2250.76416	143.16835	940.39661	2429.98779	194.85037	126.27211	2851.29858	128.82988	745.32684	2971.29663	99.65067	-146.09203	2982.80005	57.85619	-147.77080	
74	0.608	2258.25391	16.13967	1724.17969	2135.91650	11.95017	1655.90857	2356.82568	8.83404	1642.14172	2284.58276	202.40828	1410.06335	2422.11572	-70.10128	1282.02283	2342.20630	301.00693	1090.72693	2233.72705	298.57178	852.83929	2251.97192	-208.78407	1423.03259	2285.82739	-308.89230	1100.10974	2209.95361	-296.80673	853.76593				2230.52783	-146.71495	935.36841	2463.07251	-13.79882	949.31122	2205.20337	183.73175	473.69116	2147.88599	130.09720	590.63440							2489.97656	121.53902	119.68004	2300.09741	195.99330	54.48366	2215.94482	-85.51692	612.84790	2311.47144	-137.06750	456.54016	2329.62061	-54.35669	318.58740	2442.02246	-114.76279	66.68018	2507.76978	-56.10207	48.70592	2304.11597	-111.34005	49.74466	2254.25928	188.33009	42.63361	2288.56885	161.14485	58.21802	2369.61572	111.61555	95.03295	2442.49292	98.97721	102.14837	2468.22754	169.20766	114.41837	2401.86890	210.41602	81.25491	2342.34399	226.67952	58.99585	2255.90332	-87.04283	41.28916	2291.46338	-72.81073	51.69044	2384.71655	-25.55175	54.31987	2468.70630	-24.29782	48.86485	2482.39429	-97.69912	48.76814	2404.43530	-122.74188	34.27242	2344.92236	-138.92191	45.06918																																																	2963.84131	97.79782	-143.82245	2298.20117	123.10762	252.88495	2248.61914	142.58322	940.57581	2423.74121	190.75319	129.73006	2944.94531	87.27949	-161.14697	2852.00537	129.89648	745.27655	2977.45776	56.49141	-146.40485	
75	0.617	2253.98389	15.74712	1723.99536	2132.00342	12.33760	1655.71533	2353.19604	8.61290	1642.12036	2281.55054	201.26959	1410.02246	2418.53296	-71.20372	1282.06189	2342.67017	300.81747	1091.13977	2235.72314	299.51022	852.38995	2248.24463	-209.19618	1423.09436	2280.82983	-310.42676	1100.07275	2202.26611	-296.98724	854.63232				2227.74731	-147.32330	935.08392	2460.29395	-14.16031	949.48523	2195.80786	183.66682	475.94861	2140.48340	130.80339	593.39417							2483.65063	117.72567	124.58847	2295.70020	194.58899	57.28842	2214.33105	-86.60364	612.40387	2311.14551	-137.39775	456.48334	2329.40698	-54.71909	318.42477	2442.10864	-114.96009	66.67422	2507.88110	-56.17295	48.74895	2304.02710	-111.40336	49.63073	2250.08374	186.86638	44.88357	2283.46729	159.63106	60.70686	2363.04297	109.28971	97.85483	2435.99268	95.71840	106.78572	2462.34619	165.84378	118.65422	2397.59058	205.63408	85.06295	2337.77271	224.25745	62.06995	2257.16968	-87.62177	42.01845	2291.48096	-72.72002	51.58652	2384.86255	-25.61594	54.31066	2468.69092	-24.35343	48.87196	2482.50439	-97.88651	48.78144	2404.48877	-122.79444	34.05603	2344.69312	-139.03383	44.95244																																																	2291.25000	121.08265	255.51758	2245.29102	141.68239	940.87054	2417.60425	188.16312	134.05008	2966.61011	53.98213	-143.26581	2955.58472	95.92885	-140.91302	2938.70850	85.64744	-158.53040	
76	0.625	2250.60010	15.43703	1723.93286	2127.99658	11.17971	1655.57227	2349.12012	8.02138	1642.06763	2278.77686	200.65367	1410.10315	2415.03540	-72.22811	1282.27686	2341.45020	299.69644	1092.16101	2237.99561	300.69748	851.90015	2243.99170	-209.88686	1423.11829	2275.13330	-311.83362	1099.86938	2194.61670	-297.63568	855.14685				2226.04053	-147.64012	934.91687	2457.14868	-14.85601	949.63086	2187.16553	183.18645	477.56744	2133.02075	131.11298	596.57550							2476.35083	113.88083	128.50008	2289.70239	192.56493	59.69498	2213.90063	-86.99854	611.94257	2310.93677	-137.56300	456.26385	2328.98853	-55.16546	318.42758	2442.09082	-114.79015	66.63605	2507.95264	-56.22621	48.75840	2304.06934	-111.51583	49.40721	2243.79590	185.05769	47.18384	2276.57520	157.53503	63.47173	2355.55151	106.96943	101.45156	2428.50830	92.19617	109.86156	2455.78564	162.05234	122.83100	2391.87402	202.43362	88.98029	2332.21558	221.83707	65.15096	2257.52222	-87.60425	42.67992	2291.56787	-72.69693	51.58916	2384.95483	-25.69899	54.36441	2468.74707	-24.47923	48.98837	2482.49146	-97.89837	48.58437	2404.20313	-121.75574	33.52920	2345.53687	-139.38712	46.85773																																																	3952.69604	-362.40900	-312.89124	2282.49609	118.98065	258.10059	2242.50659	141.29556	941.22998	2411.40796	184.78328	137.85631	2944.29053	93.12561	-137.46716	2932.02271	83.95004	-155.75449	2960.14722	52.50142	-140.93713	
77	0.633	2246.15454	15.18721	1723.92505	2124.50195	11.29341	1655.32739	2345.25220	7.64046	1642.18750	2275.73291	200.09235	1410.14697	2411.16138	-73.23627	1282.49866	2341.13086	299.07144	1092.53564	2240.28589	302.16870	851.38794	2239.68433	-210.08453	1422.91577	2269.25195	-312.46588	1099.89502	2186.79907	-297.63235	855.93414				2221.33252	-148.33667	934.56287	2453.86426	-15.16387	949.89447	2178.82544	182.93388	479.62183	2125.98584	132.46481	598.73572							2467.88379	110.22777	131.24535	2282.43384	190.20016	62.26781	2212.65625	-87.78776	610.89795	2310.82959	-137.85040	456.15295	2328.57642	-55.57220	318.55212	2442.19312	-114.92047	66.55024	2507.97754	-56.27883	48.71975	2303.17041	-111.70314	50.33770	2236.40381	183.17262	49.28484	2269.58521	156.15375	65.56374	2347.78394	103.95229	103.95071	2420.06494	88.90357	113.03316	2447.77759	159.10954	125.22038	2384.18774	199.75624	91.32804	2325.03027	219.50940	67.67757	2257.88525	-87.60995	43.27584	2291.64746	-72.56687	51.73571	2384.99951	-25.75710	54.40525	2468.83008	-24.52987	49.05305	2482.55664	-97.86852	48.57415	2400.86963	-117.42504	28.01875	2347.34253	-140.87448	48.77347																																																	3926.23828	-359.77383	-307.46472	2274.98706	116.96185	260.39807	2239.55225	141.28320	941.69025	2403.34399	181.37106	140.30421	2949.81616	49.81937	-138.27617	2937.36865	91.32008	-135.58543	2923.04980	81.21844	-153.57385	
78	0.642	2241.95166	15.08694	1723.82275	2119.73706	11.00181	1655.01672	2341.11670	7.46694	1642.26855	2272.46704	199.53471	1409.89722	2407.35498	-74.04948	1282.59766	2339.85107	298.12616	1093.68091	2242.79688	303.51062	851.02710	2235.32983	-210.33179	1423.16431	2262.97363	-313.11209	1099.81555	2177.77905	-297.64673	856.51581				2217.99585	-148.80449	934.32135	2450.77368	-15.55971	950.02869	2170.41919	182.34540	481.41531	2118.34375	132.66463	601.66266							2458.61499	106.58485	133.39970	2273.86768	188.32541	63.87645	2211.02393	-88.12192	610.08319	2310.72949	-138.04433	456.04779	2328.45850	-55.66569	318.58313	2442.28149	-114.98025	66.51140	2508.01343	-56.28391	48.72097	2303.40186	-111.62386	50.41743	2227.99829	181.53043	51.24191	2260.74780	154.22609	67.84628	2338.24170	101.50629	105.95818	2411.64355	86.23397	115.05094	2438.86694	155.14218	127.73103	2374.66748	197.13989	93.30192	2316.71655	216.64478	69.55333	2258.03442	-87.46947	43.49260	2291.75781	-72.51270	51.78666	2385.15039	-25.92449	54.55571	2468.84473	-24.58257	49.10777	2482.65723	-97.87005	48.52822	2400.94678	-117.48295	28.03928	2347.38428	-140.85313	48.72831																																																	3901.14258	-357.09833	-302.09644	2265.58569	115.65678	262.69635	2237.01172	140.42908	941.77490	2394.84106	178.45819	142.45110	2928.90601	88.93751	-133.67865	2918.13672	79.99809	-152.16991	2941.24731	47.38232	-136.29083	
